# xmcd
#
# Track frame offsets:
#	150
#	4785
#	13644
#	23771
#	50272
#	73520
#	103252
#	131265
#	158846
#	188851
#	203341
#	228535
#
# Disc length: 3055 seconds
#
# Revision: 0
# Processed by: cddbd v1.5.2PL0 Copyright (c) Steve Scherf et al.
# Submitted via: audiograbber 1.83.01
#
DISCID=8f0bed0c
DTITLE=Ben Tiggelaar - De ideeen van Henry Mintzberg over management
DYEAR=1900
DGENRE=
TTITLE0=Welkom
TTITLE1=Wie is Henry Mintzberg eigenlijk
TTITLE2=De visie van Henry Mintzberg
TTITLE3=Mintzberg over strategie
TTITLE4=Bouwstenen voor organisaties volgens Mintzberg
TTITLE5=Vijf typen organisaties volgens Mintzberg
TTITLE6=Mythes rond het werk van managers
TTITLE7=De rollen van managers volgens Mintzberg
TTITLE8=De ergernissen van Henry Mintzberg
TTITLE9=Lof en kritiek
TTITLE10=De praktische waarde van Mintzbergs ideeen
TTITLE11=Data Track
EXTD=
EXTT0=
EXTT1=
EXTT2=
EXTT3=
EXTT4=
EXTT5=
EXTT6=
EXTT7=
EXTT8=
EXTT9=
EXTT10=
EXTT11=
PLAYORDER=
